<?xml version="1.0" encoding="utf-8"?>
<!-- Generator: Adobe Illustrator 26.5.0, SVG Export Plug-In . SVG Version: 6.00 Build 0)  -->
<svg version="1.1" id="Layer_1" xmlns="http://www.w3.org/2000/svg" xmlns:xlink="http://www.w3.org/1999/xlink" x="0px" y="0px"
	 viewBox="0 0 28.4 24.5" style="enable-background:new 0 0 28.4 24.5;" xml:space="preserve">
<style type="text/css">
	.st0{fill-rule:evenodd;clip-rule:evenodd;fill:#56B146;}
	.st1{fill-rule:evenodd;clip-rule:evenodd;fill:#C3233D;}
	.st2{fill-rule:evenodd;clip-rule:evenodd;fill:#D5246A;}
	.st3{fill-rule:evenodd;clip-rule:evenodd;fill:#E77A2B;}
	.st4{fill-rule:evenodd;clip-rule:evenodd;fill:#FAC922;}
	.st5{fill-rule:evenodd;clip-rule:evenodd;fill:#487FB5;}
	.st6{fill-rule:evenodd;clip-rule:evenodd;fill:#23477B;}
	.st7{fill-rule:evenodd;clip-rule:evenodd;fill:#419845;}
	.st8{fill-rule:evenodd;clip-rule:evenodd;fill:#014C3D;}
	.st9{fill-rule:evenodd;clip-rule:evenodd;fill:#008B47;}
	.st10{fill-rule:evenodd;clip-rule:evenodd;fill:#FFFFFF;filter:url(#Adobe_OpacityMaskFilter);}
	.st11{mask:url(#a_00000168078014638604379510000011998083135500487336_);}
</style>
<g>
	<path class="st0" d="M4.7,0h2.4L3.3,3.9L4.7,0z"/>
	<path class="st1" d="M2,10.4c0,0-2-3.6-2-3.6l2,0L2,10.4z"/>
	<path class="st2" d="M2,6.7l4,0l-4,3.6L2,6.7z"/>
	<path class="st3" d="M5.8,13.6L6,6.7l-4,3.6L5.8,13.6z"/>
	<path class="st4" d="M10.6,10.2l-4.8,3.4L6,6.7L10.6,10.2z"/>
	<path class="st0" d="M13.6,5.7L6,6.7l4.7,3.4L13.6,5.7z"/>
	<path class="st1" d="M11.9,0L8.8,3.8l4.9,1.8L11.9,0z"/>
	<path class="st5" d="M19.1,0h-7.3l1.8,5.7L19.1,0z"/>
	<path class="st2" d="M6,6.7l7.6-1.1L8.8,3.8L6,6.7z"/>
	<path class="st6" d="M20.5,5.7h-6.9L19.1,0L20.5,5.7z"/>
	<path class="st7" d="M17,12l-6.4-1.8l3-4.5L17,12z"/>
	<path class="st8" d="M20.5,5.7L17,12l-3.4-6.3L20.5,5.7z"/>
	<path class="st7" d="M22.9,10.2L17,12l3.4-6.3L22.9,10.2z"/>
	<path class="st0" d="M21.8,13.9L17,12l5.8-1.8L21.8,13.9z"/>
	<path class="st5" d="M19.1,0l5.3,4.4l-3.9,1.3L19.1,0z"/>
	<path class="st9" d="M20.5,5.7l3.9-1.3l-1.5,5.8L20.5,5.7z"/>
	<path class="st8" d="M22.9,10.2l5.4,1l-6.5,2.6L22.9,10.2z"/>
	<path class="st7" d="M28.3,11.2l0.1,5.2l-6.5-2.6L28.3,11.2z"/>
	<path class="st6" d="M21.8,13.9l6.5,2.6l-4.9,0.8L21.8,13.9z"/>
	<path class="st0" d="M28.4,16.4l-2.5,5.7l-2.4-4.8L28.4,16.4z"/>
	<defs>
		<filter id="Adobe_OpacityMaskFilter" filterUnits="userSpaceOnUse" x="15.1" y="17.2" width="10.8" height="7.2">
			<feColorMatrix  type="matrix" values="1 0 0 0 0  0 1 0 0 0  0 0 1 0 0  0 0 0 1 0"/>
		</filter>
	</defs>
	
		<mask maskUnits="userSpaceOnUse" x="15.1" y="17.2" width="10.8" height="7.2" id="a_00000168078014638604379510000011998083135500487336_">
		<path class="st10" d="M15.1,17.2h10.8v7.2H15.1V17.2z"/>
	</mask>
	<g class="st11">
		<path class="st5" d="M23.4,17.2l2.4,4.8L22.2,20L23.4,17.2z"/>
		<path class="st6" d="M25.8,22.1l-3.6,2.4l0-4.5L25.8,22.1z"/>
		<path class="st5" d="M22.2,20l0,4.5l-1.8-2.9L22.2,20z"/>
		<path class="st6" d="M22.2,24.5h-4.8l3-2.9L22.2,24.5z"/>
		<path class="st1" d="M20.4,21.6l-3,2.9l0.5-2.9H20.4z"/>
		<path class="st2" d="M17.9,21.6l-0.5,2.9l-2.3-2.9H17.9z"/>
	</g>
	<path class="st1" d="M17.9,21.6h-2.9l1.7-2L17.9,21.6z"/>
	<path class="st3" d="M15.1,21.6v-3.8l1.7,1.8L15.1,21.6z"/>
	<path class="st0" d="M24.4,4.4l3.9,6.8l-5.4-1L24.4,4.4z"/>
	<path class="st7" d="M17.9,17.9l-0.4-1.9l2.9,1.3L17.9,17.9z"/>
	<path class="st0" d="M15.1,17.8l2.9,0.1l-0.4-1.9L15.1,17.8z"/>
	<path class="st4" d="M16.7,19.6l1.2-1.7l-2.9-0.1L16.7,19.6z"/>
	<path class="st7" d="M6.7,2.5l2.1,1.3L8.7,1.2L6.7,2.5z"/>
	<path class="st0" d="M6.7,2.5l2-1.3L7.1,0L6.7,2.5z"/>
	<path class="st9" d="M3.3,3.9L7.1,0L6.7,2.5L3.3,3.9z"/>
	<path class="st8" d="M8.8,3.8L6.7,2.5l-1,1.4L8.8,3.8z"/>
	<path class="st7" d="M3.3,3.9l3.3-1.4l-1,1.4L3.3,3.9z"/>
	<path class="st3" d="M2,6.7l3.7-2.8L6,6.7L2,6.7z"/>
	<path class="st1" d="M5.7,3.9L6,6.7l2.8-2.9L5.7,3.9z"/>
	<path class="st4" d="M2,6.7l1.3-2.8l2.4,0L2,6.7z"/>
	<path class="st7" d="M11,13.6l-1.2,2h3.3L11,13.6z"/>
	<path class="st0" d="M8.5,13.6l1.4,2l1.2-2L8.5,13.6z"/>
	<path class="st8" d="M10.6,10.2l0.4,3.4l6-1.6L10.6,10.2z"/>
	<path class="st9" d="M13.2,15.6L17,12l-6,1.6L13.2,15.6z"/>
</g>
</svg>
